<svg width="261" height="79" viewBox="0 0 261 79" fill="none" xmlns="http://www.w3.org/2000/svg">
<path d="M115.841 18.5778C127.502 18.5778 134.138 24.0871 134.138 32.7808H126.454C126.454 28.3656 122.71 25.4156 115.841 25.4156C109.651 25.4156 105.421 27.8185 105.421 31.4132C105.421 35.4964 110.854 36.3364 115.627 37.0983L118.499 37.5477C125.64 38.6808 135.71 40.2828 135.71 50.7152C135.71 59.2136 129.016 64 116.559 64C103.578 64 97 58.8033 97 49.4454H104.664C104.664 54.3881 108.467 57.1623 116.539 57.1623C123.816 57.1623 128.046 54.9156 128.046 50.8911C128.046 46.2023 122.302 45.1669 116.753 44.2096L113.9 43.7212C107.4 42.6076 97.7567 40.9861 97.7567 31.5891C97.7567 23.6573 104.626 18.5778 115.841 18.5778Z" fill="#FFE5E5"/>
<path d="M135.519 41.2791C135.519 27.6623 143.901 18.5778 156.436 18.5778C168.971 18.5778 177.353 27.6623 177.353 41.2791C177.353 54.896 168.971 64 156.436 64C143.901 64 135.519 54.896 135.519 41.2791ZM143.377 41.2791C143.377 50.9106 148.364 56.8497 156.455 56.8497C164.527 56.8497 169.494 50.9106 169.494 41.2791C169.494 31.6477 164.527 25.7281 156.455 25.7281C148.364 25.7281 143.377 31.6477 143.377 41.2791Z" fill="#FFE5E5"/>
<path d="M186.55 39.5209V62.8278H178.692V5H186.55V32.1947C188.626 23.7159 194.447 18.5778 202.442 18.5778C212.182 18.5778 218.003 26.2361 218.003 38.7394V62.8278H210.145V38.7394C210.145 30.1043 206.516 25.7281 199.162 25.7281C191.265 25.7281 186.55 30.8076 186.55 39.5209Z" fill="#FFE5E5"/>
<path d="M219.166 41.2791C219.166 27.6623 227.548 18.5778 240.083 18.5778C252.618 18.5778 261 27.6623 261 41.2791C261 54.896 252.618 64 240.083 64C227.548 64 219.166 54.896 219.166 41.2791ZM227.025 41.2791C227.025 50.9106 232.011 56.8497 240.102 56.8497C248.174 56.8497 253.142 50.9106 253.142 41.2791C253.142 31.6477 248.174 25.7281 240.102 25.7281C232.011 25.7281 227.025 31.6477 227.025 41.2791Z" fill="#FFE5E5"/>
<rect width="86" height="79" rx="12" fill="#FFE6E6"/>
<path d="M59.8036 58.8375C58.9427 58.9818 56.1274 59.0523 55.0881 58.9552C54.0341 58.8576 51.8229 58.3693 51.1404 58.0834C50.9384 57.9987 50.8913 57.9818 49.8915 57.6281C49.3517 57.4366 48.6642 57.1067 47.9791 56.7096C47.0411 56.1657 46.7085 55.9542 46.7085 55.9011C46.7085 55.8675 46.9768 55.5001 47.3049 55.0856C47.6331 54.6703 48.0677 54.0701 48.2703 53.7512C48.6329 53.1801 49.1637 52.1569 49.2619 51.8406C49.2893 51.7514 49.3734 51.5192 49.4492 51.3232C49.6213 50.8789 49.6614 50.7418 49.8653 49.9003C49.9558 49.5265 50.054 49.1339 50.0833 49.0271C50.1132 48.9204 50.1559 48.7238 50.1782 48.5906C50.2241 48.3196 50.3273 48.2833 50.5007 48.478C50.5644 48.5492 50.6906 48.6462 50.781 48.6934C50.8722 48.74 51.2775 48.9735 51.6821 49.2121C52.5972 49.7502 53.3631 50.0478 54.7695 50.4113C55.2844 50.5445 56.5614 50.6292 57.4777 50.5911C58.9803 50.5283 60.4766 50.1584 61.7154 49.5439C63.9336 48.4437 65.677 46.6664 66.7215 44.4389C67.5633 42.6447 67.8857 40.9378 67.7436 39.0344C67.6308 37.5241 67.3281 36.358 66.7062 35.0353C66.0938 33.7327 65.4139 32.7916 64.3038 31.7109C63.5742 30.9994 62.8108 30.4535 61.8957 29.9878C61.1884 29.6282 60.1388 29.2033 59.9566 29.2033C59.8897 29.2033 59.8355 29.1774 59.8355 29.1457C59.8355 29.0623 59.6807 29.0118 59.0708 28.8986C58.2431 28.7447 57.8601 28.7311 56.6455 28.812C54.6121 28.9472 53.7493 29.1748 52.1766 29.9904C51.4068 30.3901 50.6542 30.8978 49.98 31.4728C49.1191 32.2076 47.9505 33.5846 47.447 34.4584C47.3495 34.6272 47.231 34.7656 47.1839 34.7656C47.1367 34.7656 46.9704 34.5981 46.8143 34.3937C46.4619 33.9332 45.2027 32.6791 44.4782 32.0692C43.9435 31.6184 43.1483 31.068 42.5429 30.729C42.1701 30.5201 41.0116 30.0163 40.7663 29.9555C40.67 29.9316 40.591 29.8805 40.591 29.841C40.591 29.8022 40.7421 29.5629 40.9275 29.3087C41.1123 29.0552 41.3404 28.7311 41.4347 28.5888C41.61 28.3237 42.0764 27.7364 42.8386 26.8218C43.6657 25.8284 45.9438 23.9145 47.2183 23.1423C48.3099 22.4813 49.7175 21.8261 50.9142 21.4238C52.0867 21.0292 52.803 20.8346 53.5588 20.7059C53.8742 20.6522 54.3476 20.57 54.6102 20.5235C55.3621 20.3909 58.5113 20.4116 59.5169 20.5565C60.9793 20.7667 62.2328 21.0765 63.5633 21.557C64.3758 21.8507 65.5528 22.3978 66.1295 22.7503C66.3487 22.8842 66.5437 22.9942 66.5622 22.9942C66.6361 22.9942 68.4337 24.236 68.8524 24.5762C70.0268 25.5302 71.6842 27.2849 72.4107 28.3444C72.9453 29.1244 73.2423 29.5707 73.3474 29.753C73.8923 30.6986 74.0885 31.0822 74.4193 31.8473C75.1948 33.6421 75.5325 34.8322 75.8715 36.9647C76.041 38.0351 76.0436 41.5911 75.8747 42.5917C75.5121 44.7422 75.2407 45.704 74.4983 47.4632C73.9553 48.751 72.9128 50.529 72.1035 51.5496C70.5563 53.5003 68.7931 55.0868 66.9897 56.1514C65.1443 57.2406 64.3535 57.6222 63.0019 58.0763C61.9562 58.4281 61.2623 58.593 59.8036 58.8375ZM32.8805 58.8136C32.4 58.8686 29.2757 58.8944 21.7926 58.9061C12.3909 58.9216 11.3445 58.9126 11.0711 58.8194C10.62 58.6661 10.3243 58.3796 10.1898 57.9689C10.1465 57.8357 10.0866 57.7264 10.0573 57.7264C9.91711 57.7264 10.0554 56.7394 10.2434 56.3985C10.3453 56.2129 19.4463 46.9898 19.5272 46.9898C19.5719 46.9898 19.7656 47.0752 19.9574 47.1793C20.9304 47.7058 21.7939 47.689 23.1308 47.1159C23.6948 46.874 24.1402 46.5306 24.8163 45.8165C27.2556 43.241 36.8912 33.4578 37.0773 33.3686C37.3972 33.2146 38.2479 33.278 38.91 33.5057C39.5135 33.7133 40.8281 34.3484 41.2646 34.6427C42.6544 35.5805 43.9097 36.845 44.7254 38.1289C45.0211 38.5952 45.6239 39.8118 45.7819 40.2632C46.2306 41.5419 46.3255 41.9598 46.5256 43.5295C46.6448 44.468 46.6505 44.6665 46.5855 45.6639C46.5167 46.7233 46.388 47.6191 46.1675 48.5744C46.0273 49.1824 45.8367 49.736 45.4691 50.6053C44.9758 51.7727 43.8435 53.4097 42.8558 54.3857C42.0121 55.2188 40.7695 56.1696 39.7626 56.751C38.3588 57.5621 37.626 57.8622 35.7162 58.4107C35.1573 58.5704 34.3914 58.7069 33.9638 58.7224C33.7363 58.7308 33.2482 58.7716 32.8805 58.8136ZM21.5333 41.6726C21.2331 41.8201 20.6628 41.8589 20.327 41.7547C19.7382 41.5723 18.4981 40.725 17.6079 39.8965C16.5545 38.9166 15.4235 37.158 14.9755 35.8037C14.5887 34.635 14.402 33.3563 14.4013 31.8758C14.4007 30.535 14.5269 29.6302 14.8742 28.4918C15.0602 27.8825 15.5286 26.7746 15.8268 26.2417C16.8955 24.3265 18.6612 22.663 20.7374 21.6146C22.3088 20.8216 23.1652 20.5532 25.2655 20.1975C26.0691 20.0617 26.2787 20.0571 32.2433 20.0384C35.6257 20.0274 39.9481 20.0119 41.8496 20.0028C43.7511 19.9938 45.3066 20.0073 45.3066 20.0332C45.3066 20.0584 45.1415 20.1923 44.9402 20.3294C42.2306 22.1792 40.6363 23.7018 36.2731 28.6076C35.295 29.7071 35.1465 29.8488 34.9349 29.883C34.153 30.0111 32.7365 30.6805 31.9062 31.315C31.6022 31.5479 31.0867 32.0045 30.761 32.3305C29.6567 33.4352 22.9747 40.2924 22.398 40.9126C22.0418 41.2962 21.7142 41.584 21.5333 41.6726Z" fill="url(#paint0_radial_12_43)"/>
<defs>
<radialGradient id="paint0_radial_12_43" cx="0" cy="0" r="1" gradientUnits="userSpaceOnUse" gradientTransform="translate(43 39.5) rotate(90) scale(19.5 33)">
<stop stop-color="white"/>
<stop offset="1" stop-color="#666666"/>
</radialGradient>
</defs>
</svg>
