<svg width="264" height="79" viewBox="0 0 264 79" fill="none" xmlns="http://www.w3.org/2000/svg">
<rect y="3.05176e-05" width="86" height="79" rx="12" fill="url(#paint0_radial_5_25)"/>
<path d="M59.8036 58.8376C58.9427 58.9818 56.1274 59.0523 55.0881 58.9553C54.0341 58.8576 51.8229 58.3693 51.1404 58.0834C50.9384 57.9987 50.8913 57.9819 49.8915 57.6281C49.3517 57.4366 48.6642 57.1068 47.9791 56.7097C47.0411 56.1657 46.7085 55.9542 46.7085 55.9012C46.7085 55.8675 46.9768 55.5002 47.3049 55.0856C47.6331 54.6703 48.0677 54.0701 48.2703 53.7513C48.6329 53.1802 49.1637 52.157 49.2619 51.8407C49.2893 51.7514 49.3734 51.5192 49.4492 51.3232C49.6213 50.8789 49.6614 50.7418 49.8653 49.9003C49.9558 49.5265 50.054 49.1339 50.0833 49.0272C50.1132 48.9205 50.1559 48.7238 50.1782 48.5906C50.2241 48.3196 50.3273 48.2834 50.5007 48.4781C50.5644 48.5492 50.6906 48.6462 50.781 48.6934C50.8722 48.74 51.2775 48.9735 51.6821 49.2122C52.5972 49.7503 53.3631 50.0478 54.7695 50.4113C55.2844 50.5445 56.5614 50.6293 57.4777 50.5911C58.9803 50.5284 60.4766 50.1584 61.7154 49.544C63.9336 48.4438 65.677 46.6664 66.7215 44.4389C67.5633 42.6447 67.8857 40.9379 67.7436 39.0344C67.6308 37.5242 67.3281 36.358 66.7062 35.0353C66.0938 33.7327 65.4139 32.7917 64.3038 31.7109C63.5742 30.9994 62.8108 30.4535 61.8957 29.9879C61.1884 29.6282 60.1388 29.2033 59.9566 29.2033C59.8897 29.2033 59.8355 29.1774 59.8355 29.1457C59.8355 29.0623 59.6807 29.0119 59.0708 28.8987C58.2431 28.7447 57.8601 28.7312 56.6455 28.812C54.6121 28.9472 53.7493 29.1749 52.1766 29.9904C51.4068 30.3902 50.6542 30.8979 49.98 31.4729C49.1191 32.2076 47.9505 33.5846 47.447 34.4584C47.3495 34.6272 47.231 34.7656 47.1839 34.7656C47.1367 34.7656 46.9704 34.5981 46.8143 34.3937C46.4619 33.9332 45.2027 32.6791 44.4782 32.0692C43.9435 31.6184 43.1483 31.068 42.5429 30.7291C42.1701 30.5202 41.0116 30.0163 40.7663 29.9555C40.67 29.9316 40.591 29.8805 40.591 29.841C40.591 29.8022 40.7421 29.5629 40.9275 29.3087C41.1123 29.0552 41.3404 28.7312 41.4347 28.5889C41.61 28.3237 42.0764 27.7364 42.8386 26.8219C43.6657 25.8284 45.9438 23.9146 47.2183 23.1423C48.3099 22.4813 49.7175 21.8261 50.9142 21.4238C52.0867 21.0293 52.803 20.8346 53.5588 20.7059C53.8742 20.6522 54.3476 20.5701 54.6102 20.5235C55.3621 20.3909 58.5113 20.4116 59.5169 20.5565C60.9793 20.7667 62.2328 21.0765 63.5633 21.5571C64.3758 21.8507 65.5528 22.3979 66.1295 22.7504C66.3487 22.8842 66.5437 22.9942 66.5622 22.9942C66.6361 22.9942 68.4337 24.236 68.8524 24.5762C70.0268 25.5302 71.6842 27.285 72.4107 28.3444C72.9453 29.1244 73.2423 29.5707 73.3474 29.7531C73.8923 30.6987 74.0885 31.0822 74.4193 31.8474C75.1948 33.6422 75.5325 34.8323 75.8715 36.9647C76.041 38.0351 76.0436 41.5911 75.8747 42.5917C75.5121 44.7422 75.2407 45.704 74.4983 47.4633C73.9553 48.751 72.9128 50.529 72.1035 51.5496C70.5563 53.5003 68.7931 55.0869 66.9897 56.1515C65.1443 57.2407 64.3535 57.6223 63.0019 58.0763C61.9562 58.4281 61.2623 58.5931 59.8036 58.8376ZM32.8805 58.8136C32.4 58.8686 29.2757 58.8945 21.7926 58.9061C12.3909 58.9216 11.3445 58.9126 11.0711 58.8195C10.62 58.6662 10.3243 58.3796 10.1898 57.9689C10.1465 57.8357 10.0866 57.7264 10.0573 57.7264C9.91711 57.7264 10.0554 56.7394 10.2434 56.3985C10.3453 56.2129 19.4463 46.9898 19.5272 46.9898C19.5719 46.9898 19.7656 47.0752 19.9574 47.1793C20.9304 47.7058 21.7939 47.689 23.1308 47.1159C23.6948 46.874 24.1402 46.5306 24.8163 45.8165C27.2556 43.2411 36.8912 33.4578 37.0773 33.3686C37.3972 33.2147 38.2479 33.278 38.91 33.5057C39.5135 33.7133 40.8281 34.3485 41.2646 34.6427C42.6544 35.5806 43.9097 36.845 44.7254 38.1289C45.0211 38.5952 45.6239 39.8118 45.7819 40.2633C46.2306 41.542 46.3255 41.9598 46.5256 43.5295C46.6448 44.468 46.6505 44.6666 46.5855 45.6639C46.5167 46.7233 46.388 47.6191 46.1675 48.5744C46.0273 49.1824 45.8367 49.736 45.4691 50.6053C44.9758 51.7728 43.8435 53.4098 42.8558 54.3858C42.0121 55.2188 40.7695 56.1696 39.7626 56.751C38.3588 57.5621 37.626 57.8622 35.7162 58.4107C35.1573 58.5704 34.3914 58.7069 33.9638 58.7224C33.7363 58.7308 33.2482 58.7716 32.8805 58.8136ZM21.5333 41.6726C21.2331 41.8201 20.6628 41.8589 20.327 41.7548C19.7382 41.5724 18.4981 40.7251 17.6079 39.8966C16.5545 38.9167 15.4235 37.1581 14.9755 35.8037C14.5887 34.635 14.402 33.3563 14.4013 31.8758C14.4007 30.535 14.5269 29.6302 14.8742 28.4918C15.0602 27.8826 15.5286 26.7746 15.8268 26.2417C16.8955 24.3266 18.6612 22.663 20.7374 21.6146C22.3088 20.8217 23.1652 20.5532 25.2655 20.1975C26.0691 20.0617 26.2787 20.0572 32.2433 20.0384C35.6257 20.0274 39.9481 20.0119 41.8496 20.0028C43.7511 19.9938 45.3066 20.0074 45.3066 20.0332C45.3066 20.0585 45.1415 20.1923 44.9402 20.3295C42.2306 22.1793 40.6363 23.7018 36.2731 28.6076C35.295 29.7072 35.1465 29.8488 34.9349 29.8831C34.153 30.0111 32.7365 30.6806 31.9062 31.3151C31.6022 31.5479 31.0867 32.0045 30.761 32.3305C29.6567 33.4352 22.9747 40.2924 22.398 40.9126C22.0418 41.2962 21.7142 41.584 21.5333 41.6726Z" fill="url(#paint1_radial_5_25)"/>
<path d="M111.174 19.8663C121.804 19.8663 127.853 24.8179 127.853 32.6315H120.849C120.849 28.6633 117.436 26.0119 111.174 26.0119C105.532 26.0119 101.676 28.1716 101.676 31.4024C101.676 35.0722 106.629 35.8272 110.98 36.512L113.597 36.9159C120.106 37.9343 129.286 39.3741 129.286 48.7505C129.286 56.3886 123.184 60.6905 111.829 60.6905C99.996 60.6905 94 56.0198 94 47.6092H100.986C100.986 52.0515 104.453 54.5449 111.811 54.5449C118.444 54.5449 122.3 52.5256 122.3 48.9085C122.3 44.6944 117.064 43.7638 112.006 42.9034L109.406 42.4645C103.48 41.4636 94.6898 40.0062 94.6898 31.5605C94.6898 24.4316 100.951 19.8663 111.174 19.8663Z" fill="white"/>
<path d="M158.143 20.9199H165.394L149.246 62.0776C146.009 70.3127 140.685 74 132.249 74C131.099 74 130.002 73.9298 128.994 73.8069V67.5911C130.232 67.7491 131.293 67.8193 132.284 67.8193C137.006 67.8193 139.907 66.081 141.393 62.0776L141.888 60.7783L126.412 20.9199H133.84L145.921 53.1577L158.143 20.9199Z" fill="white"/>
<path d="M172.796 38.6893V59.6369H165.633V20.9199H172.796V32.1048C174.689 24.4843 179.995 19.8663 187.282 19.8663C196.161 19.8663 201.467 26.7494 201.467 37.987V59.6369H194.304V37.987C194.304 30.226 190.997 26.2928 184.293 26.2928C177.094 26.2928 172.796 30.8581 172.796 38.6893Z" fill="white"/>
<path d="M226.825 59.3384C223.819 60.2339 221.13 60.6729 218.76 60.6729C210.995 60.6729 206.75 55.9145 206.75 46.819V26.8898H201.444V20.9199H206.75V12H213.914V20.9199H226.825V26.8898H213.914V46.8366C213.914 51.9637 215.789 54.3517 219.963 54.3517C221.59 54.3517 223.836 53.983 226.825 53.1929V59.3384Z" fill="white"/>
<path d="M225.866 40.2696C225.866 28.0312 233.507 19.8663 244.933 19.8663C256.359 19.8663 264 28.0312 264 40.2696C264 52.5081 256.359 60.6905 244.933 60.6905C233.507 60.6905 225.866 52.5081 225.866 40.2696ZM233.03 40.2696C233.03 48.9261 237.575 54.2639 244.951 54.2639C252.309 54.2639 256.837 48.9261 256.837 40.2696C256.837 31.6131 252.309 26.2928 244.951 26.2928C237.575 26.2928 233.03 31.6131 233.03 40.2696Z" fill="white"/>
<defs>
<radialGradient id="paint0_radial_5_25" cx="0" cy="0" r="1" gradientUnits="userSpaceOnUse" gradientTransform="translate(43 39.5) rotate(90) scale(39.5 43)">
<stop stop-color="#6645DB"/>
<stop offset="1" stop-color="#372575"/>
</radialGradient>
<radialGradient id="paint1_radial_5_25" cx="0" cy="0" r="1" gradientUnits="userSpaceOnUse" gradientTransform="translate(43 39.5) rotate(90) scale(19.5 33)">
<stop stop-color="white"/>
<stop offset="1" stop-color="white"/>
</radialGradient>
</defs>
</svg>
