<svg width="201" height="70" viewBox="0 0 201 70" fill="none" xmlns="http://www.w3.org/2000/svg">
<path d="M105.076 25.908L88.924 43.908H106V48H83.38V43.632L99.544 25.632H83.848V21.54H105.076V25.908ZM129.547 21.54H134.467L123.511 49.668C121.315 55.296 117.703 57.816 111.979 57.816C111.199 57.816 110.455 57.768 109.771 57.684V53.436C110.611 53.544 111.331 53.592 112.003 53.592C115.207 53.592 117.175 52.404 118.183 49.668L118.519 48.78L108.019 21.54H113.059L121.255 43.572L129.547 21.54ZM157.297 21.54H162.217L152.725 48H145.165L135.769 21.54H140.809L149.005 44.988L157.297 21.54ZM169.806 12.48V18.48H164.706V12.48H169.806ZM169.686 21.54V48H164.826V21.54H169.686ZM173.605 30.756C173.605 24.672 178.237 20.82 185.653 20.82C193.489 20.82 198.217 25.116 198.217 32.304V48H193.357V40.884C192.073 45.756 188.041 48.72 182.461 48.72C176.677 48.72 172.825 45.528 172.825 40.74C172.825 35.904 176.761 32.916 183.145 32.916H193.357V32.304C193.357 27.948 190.357 25.224 185.569 25.224C180.685 25.224 178.465 27.42 178.465 30.756H173.605ZM193.357 36.996H183.097C179.521 36.996 177.625 38.232 177.625 40.584C177.625 43.092 179.809 44.484 183.769 44.484C189.385 44.484 193.357 41.688 193.357 37.728V36.996Z" fill="white"/>
<rect width="70" height="70" rx="10" fill="url(#paint0_linear_22_152)"/>
<mask id="mask0_22_152" style="mask-type:luminance" maskUnits="userSpaceOnUse" x="8" y="16" width="55" height="38">
<path d="M41.7379 35.4018C41.3793 35.7604 41.3793 36.3407 41.7379 36.6994C41.917 36.8785 42.1518 36.9678 42.3865 36.9678C42.6213 36.9678 42.8564 36.8785 43.0351 36.6994L62.1681 17.566C62.4307 17.3038 62.5093 16.9088 62.3669 16.5662C62.2252 16.2235 61.8907 15.9999 61.5195 15.9999H53.6632H29.7771C22.5003 15.9999 16.5806 21.9201 16.5806 29.1968C16.5806 29.7034 16.9911 30.1143 17.498 30.1143H31.553C32.7594 30.1143 33.8934 29.6444 34.7464 28.7915L38.575 24.9629C38.9336 24.605 38.9336 24.0239 38.575 23.6653C38.2171 23.307 37.6356 23.307 37.2774 23.6653L33.4492 27.4939C32.9426 28.0004 32.2695 28.2793 31.553 28.2793H18.4522C18.921 22.4422 23.8213 17.8352 29.7771 17.8352H51.4477L17.1179 52.1651H11.1327L28.247 35.0509C28.6052 34.6927 28.6052 34.112 28.247 33.7534C27.8887 33.3955 27.3072 33.3955 26.9494 33.7534L8.26892 52.4339C8.00644 52.6965 7.92778 53.0911 8.06989 53.4341C8.212 53.7768 8.54665 54 8.91764 54H17.498H41.3838C48.6605 54 54.5806 48.0802 54.5806 40.8035C54.5806 40.2969 54.1697 39.886 53.6632 39.886H40.0587C38.8531 39.886 37.7194 40.3551 36.8665 41.2077L32.7724 45.2992C32.4138 45.6575 32.4134 46.2386 32.7716 46.5968C33.1299 46.9551 33.711 46.9551 34.0692 46.5972L38.1633 42.5057C38.6699 41.9998 39.343 41.7213 40.0587 41.7213H52.7086C52.2399 47.5581 47.3395 52.1651 41.3838 52.1651H19.7131L54.0429 17.8352H59.3041L41.7379 35.4018Z" fill="white"/>
</mask>
<g mask="url(#mask0_22_152)">
<path d="M41.7379 35.4018C41.3793 35.7604 41.3793 36.3407 41.7379 36.6994C41.917 36.8785 42.1518 36.9678 42.3865 36.9678C42.6213 36.9678 42.8564 36.8785 43.0351 36.6994L62.1681 17.566C62.4307 17.3038 62.5093 16.9088 62.3669 16.5662C62.2252 16.2235 61.8907 15.9999 61.5195 15.9999H53.6632H29.7771C22.5003 15.9999 16.5806 21.9201 16.5806 29.1968C16.5806 29.7034 16.9911 30.1143 17.498 30.1143H31.553C32.7594 30.1143 33.8934 29.6444 34.7464 28.7915L38.575 24.9629C38.9336 24.605 38.9336 24.0239 38.575 23.6653C38.2171 23.307 37.6356 23.307 37.2774 23.6653L33.4492 27.4939C32.9426 28.0004 32.2695 28.2793 31.553 28.2793H18.4522C18.921 22.4422 23.8213 17.8352 29.7771 17.8352H51.4477L17.1179 52.1651H11.1327L28.247 35.0509C28.6052 34.6927 28.6052 34.112 28.247 33.7534C27.8887 33.3955 27.3072 33.3955 26.9494 33.7534L8.26892 52.4339C8.00644 52.6965 7.92778 53.0911 8.06989 53.4341C8.212 53.7768 8.54665 54 8.91764 54H17.498H41.3838C48.6605 54 54.5806 48.0802 54.5806 40.8035C54.5806 40.2969 54.1697 39.886 53.6632 39.886H40.0587C38.8531 39.886 37.7194 40.3551 36.8665 41.2077L32.7724 45.2992C32.4138 45.6575 32.4134 46.2386 32.7716 46.5968C33.1299 46.9551 33.711 46.9551 34.0692 46.5972L38.1633 42.5057C38.6699 41.9998 39.343 41.7213 40.0587 41.7213H52.7086C52.2399 47.5581 47.3395 52.1651 41.3838 52.1651H19.7131L54.0429 17.8352H59.3041L41.7379 35.4018Z" fill="url(#paint1_linear_22_152)"/>
</g>
<defs>
<linearGradient id="paint0_linear_22_152" x1="35" y1="0" x2="35" y2="70" gradientUnits="userSpaceOnUse">
<stop stop-color="#7033FF"/>
<stop offset="1" stop-color="#431F99"/>
</linearGradient>
<linearGradient id="paint1_linear_22_152" x1="26.026" y1="20.4385" x2="53.5464" y2="64.0328" gradientUnits="userSpaceOnUse">
<stop stop-color="#FFDDDF"/>
<stop offset="1" stop-color="#CBCBCB"/>
</linearGradient>
</defs>
</svg>
