<svg width="1036" height="470" viewBox="0 0 1036 470" fill="none" xmlns="http://www.w3.org/2000/svg">
<path d="M444.009 75.4999H495.309L407.509 306.098C388.809 355.698 357.609 377.798 307.509 377.798C299.309 377.798 290.909 377.098 282.509 375.798V333.898C290.609 334.998 297.409 335.498 303.609 335.498C329.609 335.498 345.509 326.398 354.809 304.998L355.309 303.498L269.809 75.4999H322.309L382.709 254.498L444.009 75.4999Z" fill="white"/>
<path d="M677.111 75.4999H728.41L651.811 295.998H578.811L502.912 75.4999H555.411L615.911 264.598L677.111 75.4999Z" fill="white"/>
<path d="M797.612 0V51.2H745.813V0H797.612ZM796.812 155.299V375.798L746.613 295.998V75.4999L796.812 155.299Z" fill="white"/>
<path d="M826.018 154.299C826.018 102.199 865.618 69.4999 929.218 69.4999C995.518 69.4999 1035.12 105.099 1035.12 165.199V295.998H984.918V238.198C974.618 277.798 942.018 301.998 897.218 301.998C850.518 301.998 819.518 275.699 819.518 236.199C819.518 195.199 853.018 170.299 908.318 170.299H984.918V165.199C984.918 131.899 963.418 111.4 928.218 111.4C892.418 111.4 876.118 128.199 876.118 154.299H826.018ZM984.918 205.499H911.218C883.918 205.499 869.518 214.899 869.518 232.799C869.518 251.599 885.518 262.098 914.418 262.098C955.418 262.098 984.918 240.999 984.918 211.799V205.499Z" fill="white"/>
<path d="M255.571 190.135L69.3154 216.728L128.156 259.68L234.005 229.926L152.032 333.898L0.000152588 214.035L26.9323 179.875L119.707 166.299L212.481 152.724L160.198 114.941L59.2631 145.005L139.502 43.2311L282.503 155.974L255.571 190.135Z" fill="white"/>
<path d="M652.024 435.763C652.024 423.687 661.166 416.107 675.848 416.107C691.154 416.107 700.296 424.359 700.296 438.289V468.607H688.707V455.21C686.329 464.389 678.803 469.998 668.461 469.998C657.68 469.998 650.523 463.902 650.523 454.746C650.523 445.243 658.257 439.472 671.023 439.472H688.707V438.289C688.707 430.571 683.743 425.819 675.617 425.819C667.353 425.819 663.59 429.713 663.59 435.763H652.024ZM688.707 447.63H671.693C665.391 447.63 662.066 449.809 662.066 453.958C662.066 458.316 665.76 460.75 672.432 460.75C681.897 460.75 688.707 455.859 688.707 449.091V447.63Z" fill="white"/>
<path d="M718.51 399.998V411.866H706.552V399.998H718.51ZM718.326 417.498V468.607H706.737V417.498H718.326Z" fill="white"/>
<path d="M757.643 399.998V433.121C760.09 422.505 766.646 416.107 775.673 416.107C787.977 416.107 796.704 427.256 796.704 443.041C796.704 458.826 787.977 469.998 775.673 469.998C766.646 469.998 760.09 463.601 757.643 452.985V468.607H746.054V399.998H757.643ZM757.643 443.041C757.643 453.657 762.791 459.892 771.494 459.892C780.336 459.892 785.069 454.028 785.069 443.041C785.069 432.054 780.336 426.213 771.494 426.213C762.768 426.213 757.643 432.425 757.643 443.041Z" fill="white"/>
<path d="M838.11 444.733V417.498H849.699V468.607H838.11V453.541C835.801 463.972 829.199 469.998 819.711 469.998C808.445 469.998 802.004 461.445 802.004 446.634V417.498H813.593V445.475C813.593 454.955 817.379 459.707 825.067 459.707C833.308 459.707 838.11 454.283 838.11 444.733Z" fill="white"/>
<path d="M868.115 399.998V411.866H856.157V399.998H868.115ZM867.931 417.498V468.607H856.342V417.498H867.931Z" fill="white"/>
<path d="M886.146 399.998V468.607H874.558V399.998H886.146Z" fill="white"/>
<path d="M930.726 399.998H942.315V468.607H930.726V452.985C928.279 463.601 921.723 469.998 912.719 469.998C900.392 469.998 891.665 458.826 891.665 443.041C891.665 427.256 900.392 416.107 912.719 416.107C921.723 416.107 928.279 422.505 930.726 433.121V399.998ZM930.726 443.041C930.726 432.425 925.601 426.213 916.875 426.213C908.033 426.213 903.3 432.054 903.3 443.041C903.3 454.028 908.033 459.892 916.875 459.892C925.578 459.892 930.726 453.657 930.726 443.041Z" fill="white"/>
<path d="M985.937 451.478H997.111C994.41 463.021 985.36 469.998 973.217 469.998C958.05 469.998 947.846 459.127 947.846 442.995C947.846 426.909 957.934 416.107 972.94 416.107C987.738 416.107 997.341 426.63 997.341 442.879C997.341 444.084 997.295 445.266 997.157 446.587H959.297C960.266 455.094 965.507 460.193 973.517 460.193C979.589 460.193 983.675 457.25 985.937 451.478ZM959.458 438.243H985.868C984.644 430.154 980.189 425.819 972.986 425.819C965.599 425.819 960.728 430.409 959.458 438.243Z" fill="white"/>
<path d="M1014.47 444.27V468.607H1002.88V417.498H1014.47V434.534C1016.57 423.965 1022.48 417.498 1032.85 417.498H1035.52V428.508H1031.69C1018.58 428.508 1014.47 433.561 1014.47 444.27Z" fill="white"/>
</svg>
